<svg width="74" height="46" viewBox="0 0 74 46" fill="none" xmlns="http://www.w3.org/2000/svg">
    <path
        d="M0.426136 36.794V35.2727H7.59375V36.794H4.92188V44H3.09801V36.794H0.426136ZM16.3956 39.6364C16.3956 40.5881 16.2152 41.3977 15.8544 42.0653C15.4964 42.733 15.0078 43.2429 14.3885 43.5952C13.772 43.9446 13.0788 44.1193 12.3089 44.1193C11.5334 44.1193 10.8374 43.9432 10.2209 43.5909C9.6044 43.2386 9.11719 42.7287 8.75923 42.0611C8.40128 41.3935 8.2223 40.5852 8.2223 39.6364C8.2223 38.6847 8.40128 37.875 8.75923 37.2074C9.11719 36.5398 9.6044 36.0312 10.2209 35.6818C10.8374 35.3295 11.5334 35.1534 12.3089 35.1534C13.0788 35.1534 13.772 35.3295 14.3885 35.6818C15.0078 36.0312 15.4964 36.5398 15.8544 37.2074C16.2152 37.875 16.3956 38.6847 16.3956 39.6364ZM14.5249 39.6364C14.5249 39.0199 14.4325 38.5 14.2479 38.0767C14.0661 37.6534 13.8089 37.3324 13.4766 37.1136C13.1442 36.8949 12.755 36.7855 12.3089 36.7855C11.8629 36.7855 11.4737 36.8949 11.1413 37.1136C10.8089 37.3324 10.5504 37.6534 10.3658 38.0767C10.1839 38.5 10.093 39.0199 10.093 39.6364C10.093 40.2528 10.1839 40.7727 10.3658 41.196C10.5504 41.6193 10.8089 41.9403 11.1413 42.1591C11.4737 42.3778 11.8629 42.4872 12.3089 42.4872C12.755 42.4872 13.1442 42.3778 13.4766 42.1591C13.8089 41.9403 14.0661 41.6193 14.2479 41.196C14.4325 40.7727 14.5249 40.2528 14.5249 39.6364ZM17.7624 44V35.2727H21.2056C21.8675 35.2727 22.4315 35.3991 22.8974 35.652C23.3633 35.902 23.7184 36.25 23.9627 36.696C24.2099 37.1392 24.3335 37.6506 24.3335 38.2301C24.3335 38.8097 24.2085 39.321 23.9585 39.7642C23.7085 40.2074 23.3462 40.5526 22.8718 40.7997C22.4002 41.0469 21.8292 41.1705 21.1587 41.1705H18.9641V39.6918H20.8604C21.2156 39.6918 21.5082 39.6307 21.7383 39.5085C21.9712 39.3835 22.1445 39.2116 22.2582 38.9929C22.3746 38.7713 22.4329 38.517 22.4329 38.2301C22.4329 37.9403 22.3746 37.6875 22.2582 37.4716C22.1445 37.2528 21.9712 37.0838 21.7383 36.9645C21.5053 36.8423 21.2099 36.7812 20.8519 36.7812H19.6076V44H17.7624ZM25.532 44V35.2727H28.9751C29.6371 35.2727 30.201 35.3991 30.6669 35.652C31.1328 35.902 31.4879 36.25 31.7322 36.696C31.9794 37.1392 32.103 37.6506 32.103 38.2301C32.103 38.8097 31.978 39.321 31.728 39.7642C31.478 40.2074 31.1158 40.5526 30.6413 40.7997C30.1697 41.0469 29.5987 41.1705 28.9283 41.1705H26.7337V39.6918H28.63C28.9851 39.6918 29.2777 39.6307 29.5078 39.5085C29.7408 39.3835 29.9141 39.2116 30.0277 38.9929C30.1442 38.7713 30.2024 38.517 30.2024 38.2301C30.2024 37.9403 30.1442 37.6875 30.0277 37.4716C29.9141 37.2528 29.7408 37.0838 29.5078 36.9645C29.2749 36.8423 28.9794 36.7812 28.6214 36.7812H27.3771V44H25.532ZM41.3214 39.6364C41.3214 40.5881 41.141 41.3977 40.7802 42.0653C40.4222 42.733 39.9336 43.2429 39.3143 43.5952C38.6978 43.9446 38.0046 44.1193 37.2347 44.1193C36.4592 44.1193 35.7631 43.9432 35.1467 43.5909C34.5302 43.2386 34.043 42.7287 33.685 42.0611C33.3271 41.3935 33.1481 40.5852 33.1481 39.6364C33.1481 38.6847 33.3271 37.875 33.685 37.2074C34.043 36.5398 34.5302 36.0312 35.1467 35.6818C35.7631 35.3295 36.4592 35.1534 37.2347 35.1534C38.0046 35.1534 38.6978 35.3295 39.3143 35.6818C39.9336 36.0312 40.4222 36.5398 40.7802 37.2074C41.141 37.875 41.3214 38.6847 41.3214 39.6364ZM39.4506 39.6364C39.4506 39.0199 39.3583 38.5 39.1737 38.0767C38.9918 37.6534 38.7347 37.3324 38.4023 37.1136C38.07 36.8949 37.6808 36.7855 37.2347 36.7855C36.7887 36.7855 36.3995 36.8949 36.0671 37.1136C35.7347 37.3324 35.4762 37.6534 35.2915 38.0767C35.1097 38.5 35.0188 39.0199 35.0188 39.6364C35.0188 40.2528 35.1097 40.7727 35.2915 41.196C35.4762 41.6193 35.7347 41.9403 36.0671 42.1591C36.3995 42.3778 36.7887 42.4872 37.2347 42.4872C37.6808 42.4872 38.07 42.3778 38.4023 42.1591C38.7347 41.9403 38.9918 41.6193 39.1737 41.196C39.3583 40.7727 39.4506 40.2528 39.4506 39.6364ZM44.5334 35.2727V44H42.6882V35.2727H44.5334ZM53.3512 35.2727V44H51.7575L47.9606 38.5071H47.8967V44H46.0515V35.2727H47.6708L51.4379 40.7614H51.5146V35.2727H53.3512ZM54.5433 36.794V35.2727H61.7109V36.794H59.0391V44H57.2152V36.794H54.5433ZM63.3292 44H61.3519L64.3647 35.2727H66.7425L69.7511 44H67.7738L65.5877 37.267H65.5195L63.3292 44ZM63.2056 40.5696H67.8761V42.0099H63.2056V40.5696ZM72.6467 35.2727V44H70.8015V35.2727H72.6467Z"
        fill="white" />
    <path
        d="M50.9994 28.2626V31H48.2621L36.4998 19.2377L24.7374 31H22V28.2626L33.7623 16.5003L22 4.73741V2H24.7374L36.4998 13.7623L48.2621 2H50.9994V4.73741L39.237 16.4997L50.9994 28.2626ZM39.3753 2L36.4998 4.87545L33.6242 2H28.6778L36.4992 9.82139L44.3211 2H39.3753ZM44.3217 30.9994L36.5004 23.178L28.679 30.9994H33.6252L36.5008 28.1239L39.3766 30.9994H44.3227H44.3217ZM51 19.3754L48.1244 16.4997L51 13.624V8.6777L43.1786 16.4991L51 24.3205V19.3741V19.3754ZM22 24.3211L29.8213 16.4997L22 8.6783V13.6246L24.8756 16.5003L22 19.376V24.3223V24.3211Z"
        fill="white" />
</svg>