<svg xmlns="http://www.w3.org/2000/svg" width="29" height="29" viewBox="0 0 29 29" fill="none">
    <path
        d="M28.9994 26.2626V29H26.2621L14.4998 17.2377L2.73739 29H0V26.2626L11.7623 14.5003L0 2.73741V0H2.73739L14.4998 11.7623L26.2621 0H28.9994V2.73741L17.237 14.4997L28.9994 26.2626ZM17.3753 0L14.4998 2.87545L11.6242 0H6.67779L14.4992 7.82139L22.3211 0H17.3753ZM22.3217 28.9994L14.5004 21.178L6.67901 28.9994H11.6252L14.5008 26.1239L17.3766 28.9994H22.3227H22.3217ZM29 17.3754L26.1244 14.4997L29 11.624V6.6777L21.1786 14.4991L29 22.3205V17.3741V17.3754ZM0 22.3211L7.82127 14.4997L0 6.6783V11.6246L2.87558 14.5003L0 17.376V22.3223V22.3211Z"
        fill="black" />
</svg>