<svg width="64" height="46" viewBox="0 0 64 46" fill="none" xmlns="http://www.w3.org/2000/svg">
    <g clip-path="url(#clip0_67_6)">
        <path
            d="M0.821733 33.5455H3.28693L5.89062 39.8977H6.00142L8.60511 33.5455H11.0703V43H9.13139V36.8462H9.05291L6.60618 42.9538H5.28587L2.83913 36.8232H2.76065V43H0.821733V33.5455ZM14.3469 43H12.2048L15.4687 33.5455H18.0447L21.3039 43H19.1618L16.7936 35.706H16.7197L14.3469 43ZM14.213 39.2837H19.2726V40.8441H14.213V39.2837ZM30.3395 36.8555H28.3175C28.2805 36.5939 28.2051 36.3615 28.0913 36.1584C27.9774 35.9522 27.8312 35.7768 27.6527 35.6321C27.4742 35.4875 27.268 35.3767 27.0341 35.2997C26.8033 35.2228 26.5524 35.1843 26.2816 35.1843C25.7923 35.1843 25.366 35.3059 25.0028 35.549C24.6397 35.7891 24.3581 36.1399 24.158 36.6016C23.958 37.0601 23.858 37.6172 23.858 38.2727C23.858 38.9467 23.958 39.513 24.158 39.9716C24.3612 40.4302 24.6443 40.7764 25.0075 41.0103C25.3706 41.2442 25.7907 41.3612 26.2678 41.3612C26.5355 41.3612 26.7833 41.3258 27.011 41.255C27.2418 41.1842 27.4465 41.0811 27.625 40.9457C27.8035 40.8072 27.9512 40.6394 28.0682 40.4425C28.1882 40.2455 28.2713 40.0208 28.3175 39.7685L30.3395 39.7777C30.2872 40.2116 30.1564 40.6302 29.9471 41.0334C29.7409 41.4335 29.4624 41.792 29.1115 42.109C28.7637 42.4229 28.3482 42.6722 27.8651 42.8569C27.3849 43.0385 26.8417 43.1293 26.2354 43.1293C25.3922 43.1293 24.6381 42.9384 23.9734 42.5568C23.3117 42.1752 22.7885 41.6228 22.4038 40.8995C22.0221 40.1763 21.8313 39.3007 21.8313 38.2727C21.8313 37.2417 22.0252 36.3646 22.413 35.6413C22.8008 34.9181 23.3271 34.3672 23.9918 33.9886C24.6566 33.607 25.4045 33.4162 26.2354 33.4162C26.7833 33.4162 27.2911 33.4931 27.7589 33.647C28.2298 33.8009 28.6468 34.0256 29.0099 34.321C29.3731 34.6134 29.6686 34.9719 29.8963 35.3967C30.1271 35.8214 30.2749 36.3076 30.3395 36.8555ZM31.7729 43V33.5455H33.7718V37.4464H37.8297V33.5455H39.824V43H37.8297V39.0945H33.7718V43H31.7729ZM43.3464 33.5455L45.253 36.7678H45.3269L47.2427 33.5455H49.5002L46.6149 38.2727L49.5648 43H47.2658L45.3269 39.7731H45.253L43.3141 43H41.0243L43.9835 38.2727L41.0797 33.5455H43.3464ZM52.3947 43H50.2527L53.5165 33.5455H56.0925L59.3517 43H57.2097L54.8414 35.706H54.7676L52.3947 43ZM52.2608 39.2837H57.3205V40.8441H52.2608V39.2837ZM62.4886 33.5455V43H60.4897V33.5455H62.4886Z"
            fill="white" />
        <path
            d="M45.9994 26.2626V29H43.2621L31.4998 17.2377L19.7374 29H17V26.2626L28.7623 14.5003L17 2.73741V0H19.7374L31.4998 11.7623L43.2621 0H45.9994V2.73741L34.237 14.4997L45.9994 26.262V26.2626ZM34.3753 0L31.4998 2.87545L28.6242 0H23.6778L31.4992 7.82139L39.3211 0H34.3747H34.3753ZM39.3217 28.9994L31.5004 21.178L23.679 28.9994H28.6252L31.5008 26.1239L34.3766 28.9994H39.3227H39.3217ZM46 17.3754L43.1244 14.4997L46 11.624V6.6777L38.1786 14.4991L46 22.3205V17.3741V17.3754ZM17 22.3211L24.8213 14.4997L17 6.6783V11.6246L19.8756 14.5003L17 17.376V22.3223V22.3211Z"
            fill="white" />
    </g>
    <defs>
        <clipPath id="clip0_67_6">
            <rect width="64" height="46" fill="white" />
        </clipPath>
    </defs>
</svg>